<svg width="135" height="21" viewBox="0 0 135 21" fill="none" xmlns="http://www.w3.org/2000/svg">
<g id="Group 136">
<path id="Star 1" d="M10.823 0L13.2018 7.25532H20.8999L14.672 11.7394L17.0508 18.9947L10.823 14.5106L4.59514 18.9947L6.97397 11.7394L0.746118 7.25532H8.44417L10.823 0Z" fill="#F4BC61"/>
<path id="Star 2" d="M39.0779 0L41.4567 7.25532H49.1548L42.9269 11.7394L45.3057 18.9947L39.0779 14.5106L32.85 18.9947L35.2289 11.7394L29.001 7.25532H36.699L39.0779 0Z" fill="#F4BC61"/>
<path id="Star 3" d="M67.3318 0L69.7106 7.25532H77.4087L71.1808 11.7394L73.5596 18.9947L67.3318 14.5106L61.1039 18.9947L63.4828 11.7394L57.2549 7.25532H64.953L67.3318 0Z" fill="#F4BC61"/>
<path id="Star 4" d="M95.5867 0L97.9655 7.25532H105.664L99.4357 11.7394L101.815 18.9947L95.5867 14.5106L89.3588 18.9947L91.7376 11.7394L85.5098 7.25532H93.2078L95.5867 0Z" fill="#F4BC61"/>
<path id="Star 5" d="M123.841 0L126.22 7.25532H133.918L127.69 11.7394L130.069 18.9947L123.841 14.5106L117.613 18.9947L119.992 11.7394L113.764 7.25532H121.462L123.841 0Z" fill="#F4BC61"/>
</g>
</svg>
